<?xml version="1.0" encoding="UTF-8" standalone="no"?>
<!-- Created with Inkscape (http://www.inkscape.org/) -->

<svg
   xmlns:dc="http://purl.org/dc/elements/1.1/"
   xmlns:cc="http://creativecommons.org/ns#"
   xmlns:rdf="http://www.w3.org/1999/02/22-rdf-syntax-ns#"
   xmlns:svg="http://www.w3.org/2000/svg"
   xmlns="http://www.w3.org/2000/svg"
   xmlns:sodipodi="http://sodipodi.sourceforge.net/DTD/sodipodi-0.dtd"
   xmlns:inkscape="http://www.inkscape.org/namespaces/inkscape"
   id="svg2"
   version="1.1"
   inkscape:version="0.91 r13725"
   xml:space="preserve"
   width="75.127762"
   height="274.59879"
   viewBox="0 0 75.12776 274.59879"
   sodipodi:docname="pinegumstudio_halftree.svg"><metadata
     id="metadata8"><rdf:RDF><cc:Work
         rdf:about=""><dc:format>image/svg+xml</dc:format><dc:type
           rdf:resource="http://purl.org/dc/dcmitype/StillImage" /><dc:title></dc:title></cc:Work></rdf:RDF></metadata><defs
     id="defs6"><filter
       inkscape:label="Opacity"
       style="color-interpolation-filters:sRGB;"
       id="filter4292"><feColorMatrix
         values="1 0 0 0 0 0 1 0 0 0 0 0 1 0 0 0 0 0 5 -1 "
         result="colormatrix"
         id="feColorMatrix4294" /><feComposite
         in2="colormatrix"
         operator="arithmetic"
         k2="0.6"
         result="composite"
         id="feComposite4296" /></filter></defs><sodipodi:namedview
     pagecolor="#ffffff"
     bordercolor="#666666"
     borderopacity="1"
     objecttolerance="10"
     gridtolerance="10"
     guidetolerance="10"
     inkscape:pageopacity="0"
     inkscape:pageshadow="2"
     inkscape:window-width="1920"
     inkscape:window-height="1004"
     id="namedview4"
     showgrid="false"
     fit-margin-top="0"
     fit-margin-left="0"
     fit-margin-right="0"
     fit-margin-bottom="0"
     inkscape:zoom="2.58"
     inkscape:cx="191.08271"
     inkscape:cy="118.31625"
     inkscape:window-x="0"
     inkscape:window-y="24"
     inkscape:window-maximized="1"
     inkscape:current-layer="g10" /><g
     id="g10"
     inkscape:groupmode="layer"
     inkscape:label="pinegumstudio_blackonwhitePDF"
     transform="matrix(1.25,0,0,-1.25,-1.957954,276.99875)"><g
       id="g4282"
       style="filter:url(#filter4292)"><path
         inkscape:connector-curvature="0"
         id="path12"
         style="fill:#000000;fill-opacity:1;fill-rule:nonzero;stroke:none"
         d="m 65.6114,50.038 c -0.1843,8.5522 -0.341,16.7543 -0.4625,23.3264 -0.1097,5.9362 -0.2208,12.1651 -0.3316,18.569 -0.0252,1.4607 -0.1731,11.4356 -0.2998,17.8216 -0.0796,4.008 -0.1311,8.041 -0.1961,12.072 -0.0505,3.138 -0.1341,8.495 -0.1971,12.504 -0.0916,5.825 -0.18,11.589 -0.2653,17.214 -0.0373,2.464 -0.1113,7.377 -0.1494,9.931 -0.0712,4.769 -0.139,9.392 -0.2041,13.815 0.018,-1.225 -0.0914,6.258 -0.1137,7.806 -0.0441,3.069 -0.0862,6.013 -0.1267,8.809 -0.0114,0.787 -0.0248,1.751 -0.0471,3.319 -0.2276,16.011 -0.3677,26.374 -0.3677,26.374 l -4.4876,-4.249 c 0,0 0.0864,-8.487 0.1882,-21.938 0.0102,-1.344 0.0197,-2.59 0.0286,-3.807 0.0197,-2.726 0.0398,-5.619 0.0597,-8.657 0.0196,-3.008 0.0333,-5.307 0.0484,-7.811 0.0263,-4.363 0.0506,-8.949 0.0735,-13.699 0.0081,-1.68 0.0363,-8.267 0.0418,-9.718 0.0217,-5.699 0.0401,-11.564 0.0525,-17.508 0.0055,-2.682 0.0114,-5.217 0.0161,-12.589 0.0024,-3.729 0.0014,-7.463 -0.0025,-11.183 C 58.8647,106.348 58.8454,97.4247 58.8199,91.7578 58.7907,85.2645 58.7498,78.9382 58.6937,72.9024 58.6131,64.2309 58.5822,60.2955 58.3611,49.6521 58.0011,32.319 57.4149,20.6042 56.4962,19.75 52.6467,16.1698 41.5977,2.8226 41.5977,2.8226 c 0,0 12.5576,2.2533 18.7543,0.8391 16.0461,-3.662 21.3071,-0.4121 21.3071,-0.4121 0,0 0.2334,1.1314 -1.6172,1.8894 -3.8275,1.5677 -11.2615,5.1143 -13.5388,16.1469 -0.3938,1.9077 -0.5498,12.8866 -0.8917,28.7521 z" /><path
         inkscape:connector-curvature="0"
         id="path16"
         style="fill:#000000;fill-opacity:1;fill-rule:nonzero;stroke:none"
         d="m 58.4897,205.099 c -0.0417,-2.725 0.2595,17.257 0.0575,3.807 -1.3339,-0.339 -3.2929,-0.533 -5.9128,0.031 -4.7078,1.014 0.3248,-3.654 5.8553,-3.838 z" /><path
         inkscape:connector-curvature="0"
         id="path20"
         style="fill:#000000;fill-opacity:1;fill-rule:nonzero;stroke:none"
         d="M 59.5414,75.4585 C 58.79,58.138 60.5915,104.728 60.3991,98.6954 57.1767,94.961 52.1798,89.9119 47.8351,88.7086 40.7425,86.7443 31.3582,80.6339 24.047,83.5803 c -7.312,2.9464 -16.4777,0.2176 -8.8392,-6.4379 7.6386,-6.6564 11.6759,-0.5459 11.6759,-0.5459 0,0 5.6743,-6.0016 10.585,-0.1088 0,0 6.1105,-7.5297 12.5492,4.1462 0,0 4.4849,-5.622 9.5235,-5.1754 z" /><path
         inkscape:connector-curvature="0"
         id="path24"
         style="fill:#000000;fill-opacity:1;fill-rule:nonzero;stroke:none"
         d="M 59.377,37.3893 C 58.457,17.225 60.6628,71.4649 60.4272,64.4413 56.4815,60.0938 50.363,54.2157 45.0431,52.8149 36.3585,50.5281 24.8679,43.4144 15.9157,46.8446 6.9624,50.2747 -4.2606,47.098 5.0925,39.3497 c 9.353,-7.7493 14.2966,-0.6355 14.2966,-0.6355 0,0 6.9479,-6.9871 12.9608,-0.1268 0,0 7.482,-8.7659 15.366,4.827 0,0 5.4915,-6.5451 11.6611,-6.0251 z" /><path
         inkscape:connector-curvature="0"
         id="path28"
         style="fill:#000000;fill-opacity:1;fill-rule:nonzero;stroke:none"
         d="m 59.9352,110.831 c -0.1759,-6.491 0.559,22.395 0.471,18.676 -1.6038,-1.325 -3.7962,-3.446 -5.8388,-6.481 -3.8206,-5.674 -19.6409,-1.418 -20.4054,-7.311 0,0 -7.858,2.292 -10.1496,-5.019 -2.2908,-7.312 11.5671,-1.419 11.5671,-1.419 0,0 5.8928,-7.966 9.3842,0 0,0 7.5297,-7.857 12.6581,2.837 0,0 0.8349,-1.216 2.3134,-1.283 z" /><path
         inkscape:connector-curvature="0"
         id="path32"
         style="fill:#000000;fill-opacity:1;fill-rule:nonzero;stroke:none"
         d="m 60.0184,142.847 c -0.0818,-3.728 0.3901,18.529 0.2682,12.586 -1.6892,-0.088 -3.7318,-0.56 -4.6713,-2.203 0,0 -10.039,2.619 -12.8765,-4.584 0,0 -12.7678,-1.309 -13.8579,-5.018 -1.0918,-3.711 11.9067,-9.713 15.392,-3.711 0,0 7.1954,-0.873 7.9589,5.238 0,0 4.0061,-3.052 7.7866,-2.308 z" /><path
         inkscape:connector-curvature="0"
         id="path34"
         style="fill:#000000;fill-opacity:1;fill-rule:nonzero;stroke:none"
         d="m 59.2602,169.794 c -0.1071,-5.698 0.2621,14.466 0.1776,9.716 -2.053,-0.075 -5.0108,-0.632 -5.8231,-3.126 0,0 -7.7169,3.382 -10.9907,-2.837 -3.2738,-6.22 9.4391,-2.184 9.4391,-2.184 0,0 2.9273,-3.513 7.1971,-1.569 z" /><path
         inkscape:connector-curvature="0"
         id="path38"
         style="fill:#000000;fill-opacity:1;fill-rule:nonzero;stroke:none"
         d="m 59.7659,199.584 c -0.0252,3.07 0.0976,-12.229 0.0627,-7.805 -6.7922,-0.041 -14.9827,-3.862 -12.8853,0.698 2.5094,5.457 9.7117,4.911 9.7117,4.911 0.6513,1.52 1.8737,2.075 3.1109,2.196 z" /></g></g></svg>